<?xml version="1.0" encoding="utf-8"?>
<!-- Generator: Adobe Illustrator 19.0.0, SVG Export Plug-In . SVG Version: 6.00 Build 0)  -->
<svg version="1.1" id="Camada_1" xmlns="http://www.w3.org/2000/svg" xmlns:xlink="http://www.w3.org/1999/xlink" x="0px" y="0px"
	 viewBox="0 0 929.9 655.3" style="enable-background:new 0 0 929.9 655.3;" xml:space="preserve">
<style type="text/css">
	.st0{fill:#DB2A83;}
	.st1{fill:#0069AA;}
	.st2{fill:url(#XMLID_28_);}
	.st3{fill:url(#XMLID_29_);}
	.st4{fill:url(#XMLID_30_);}
	.st5{fill:url(#XMLID_31_);}
	.st6{fill:url(#XMLID_32_);}
	.st7{fill:url(#XMLID_33_);}
	.st8{fill:url(#XMLID_34_);}
	.st9{fill:url(#XMLID_35_);}
	.st10{fill:url(#XMLID_36_);}
	.st11{fill:url(#XMLID_37_);}
	.st12{fill:url(#XMLID_38_);}
	.st13{fill:url(#XMLID_39_);}
	.st14{fill:url(#XMLID_40_);}
	.st15{fill:url(#XMLID_41_);}
	.st16{fill:url(#XMLID_42_);}
	.st17{fill:url(#XMLID_43_);}
	.st18{fill:url(#XMLID_44_);}
	.st19{fill:url(#XMLID_45_);}
	.st20{fill:url(#XMLID_46_);}
	.st21{fill:url(#XMLID_47_);}
</style>
<g id="XMLID_157_">
	<g id="XMLID_158_">
		<g id="XMLID_186_">
			<path id="XMLID_214_" d="M448.1,341c0-2.9,1.4-4.3,4.3-4.3h10.1c1.2,0,2.2,0.4,3.1,1.1c0.9,0.8,1.4,1.8,1.4,3.2v43.9
				c0,0.8-0.2,1.5-0.5,2.2c-0.3,0.7-0.9,1.3-1.7,1.7l-0.8,0.6c-6.2,4.5-12.9,7.9-20.3,10.3c-7.4,2.4-15.4,3.6-24,3.6
				c-6.9,0-13.6-0.9-20-2.7c-6.4-1.8-12.4-4.3-17.9-7.6c-5.5-3.3-10.6-7.2-15.1-11.7c-4.6-4.6-8.5-9.6-11.7-15.1
				c-3.2-5.5-5.7-11.5-7.5-17.9c-1.8-6.4-2.7-13.1-2.7-20c0-6.9,0.9-13.5,2.7-19.9c1.8-6.4,4.3-12.3,7.6-17.9
				c3.3-5.6,7.2-10.6,11.7-15.2c4.6-4.6,9.6-8.5,15.1-11.8c5.5-3.3,11.5-5.8,17.9-7.6c6.4-1.8,13.1-2.7,20-2.7
				c8.1,0,15.8,1.2,23.3,3.7c7.5,2.5,14.4,6,20.9,10.6c0.7,0.5,1.3,1.1,1.8,1.8c0.5,0.7,0.7,1.4,0.7,2.1c0,0.9-0.3,1.7-0.8,2.4
				l-5.2,8.6c-1.1,1.6-2.3,2.4-3.4,2.4c-0.5,0-1-0.1-1.5-0.3c-0.6-0.2-1.2-0.6-1.9-1.1c-4.7-3.3-9.8-6-15.4-7.9
				c-5.5-1.9-11.5-2.9-17.7-2.9c-8.1,0-15.6,1.5-22.6,4.6c-6.9,3.1-12.9,7.2-18,12.4c-5.1,5.2-9.1,11.1-11.9,17.9
				c-2.9,6.8-4.3,13.8-4.3,21.1c0,7.8,1.5,15.1,4.4,21.9c2.9,6.8,6.9,12.7,12,17.7c5,5,10.9,9,17.6,11.8c6.7,2.9,13.9,4.3,21.5,4.3
				c4.8,0,9.5-0.8,14.3-2.3c4.8-1.5,9.6-3.4,14.5-5.5V341z"/>
			<path id="XMLID_212_" d="M593.3,255.2c3,0,4.5,1.6,4.5,4.7v9.7c0,1.2-0.4,2.3-1.1,3.2c-0.8,0.9-2,1.4-3.6,1.4h-79.2v40.4h62.3
				c1.2,0,2.2,0.3,3,1s1.3,1.9,1.3,3.5v10c0,1.2-0.4,2.2-1.1,3.1c-0.7,0.9-1.8,1.4-3.2,1.4h-62.3v48.4h79.6c3,0,4.5,1.5,4.5,4.6
				v10.1c0,2.9-1.4,4.3-4.3,4.3h-94.6c-2.9,0-4.3-1.4-4.3-4.1V259.7c0-3,1.4-4.5,4.3-4.5H593.3z"/>
			<path id="XMLID_210_" d="M729.3,401.1c-1.4,0-2.7-0.7-3.7-2.2l-85.8-115v112.8c0,2.9-1.5,4.3-4.5,4.3h-9.9
				c-2.9,0-4.3-1.4-4.3-4.3V259.7c0-1.3,0.4-2.4,1.2-3.2c0.8-0.9,1.8-1.3,3.1-1.3h13.2c1.7,0,3.1,0.7,4.1,2.2l83.7,111.2V258.8
				c0.4-2.4,1.8-3.6,4.3-3.6h9.9c1.2,0,2.3,0.4,3.3,1.2c1,0.8,1.5,1.8,1.5,3.1v137.3c0,2.9-1.6,4.3-4.8,4.3H729.3z"/>
			<path id="XMLID_208_" d="M875.2,255.2c3,0,4.5,1.6,4.5,4.7v9.7c0,1.2-0.4,2.3-1.1,3.2c-0.8,0.9-2,1.4-3.6,1.4h-79.2v40.4h62.3
				c1.2,0,2.2,0.3,3,1c0.9,0.7,1.3,1.9,1.3,3.5v10c0,1.2-0.4,2.2-1.1,3.1c-0.7,0.9-1.8,1.4-3.2,1.4h-62.3v48.4h79.6
				c3,0,4.5,1.5,4.5,4.6v10.1c0,2.9-1.4,4.3-4.3,4.3H781c-2.9,0-4.3-1.4-4.3-4.1V259.7c0-3,1.4-4.5,4.3-4.5H875.2z"/>
			<g id="XMLID_191_">
				<g id="XMLID_200_">
					<circle id="XMLID_207_" class="st0" cx="507.6" cy="81.7" r="17.7"/>
					<circle id="XMLID_206_" class="st0" cx="496.1" cy="137.7" r="17.7"/>
					<circle id="XMLID_205_" class="st0" cx="463.8" cy="181.8" r="16.2"/>
					<circle id="XMLID_204_" class="st0" cx="419.6" cy="220.1" r="14.7"/>
					<circle id="XMLID_203_" class="st0" cx="460.2" cy="480.1" r="9.8"/>
					<circle id="XMLID_202_" class="st0" cx="494.9" cy="526.7" r="7.2"/>
					<circle id="XMLID_201_" class="st0" cx="506.8" cy="580.8" r="7.2"/>
				</g>
				<g id="XMLID_192_">
					<circle id="XMLID_199_" class="st0" cx="328.6" cy="574.8" r="17.7"/>
					<circle id="XMLID_198_" class="st0" cx="340.1" cy="518.9" r="17.7"/>
					<circle id="XMLID_197_" class="st0" cx="372.4" cy="474.7" r="16.2"/>
					<circle id="XMLID_196_" class="st0" cx="416.6" cy="436.5" r="14.7"/>
					<circle id="XMLID_195_" class="st0" cx="376" cy="176.4" r="9.8"/>
					<circle id="XMLID_194_" class="st0" cx="341.3" cy="129.8" r="7.2"/>
					<circle id="XMLID_193_" class="st0" cx="329.4" cy="75.7" r="7.2"/>
				</g>
			</g>
			<path id="XMLID_189_" class="st1" d="M56.7,402.7c-0.2,1.9-1.2,2.9-3,2.9h-0.1c-1.7-0.2-2.5-1.1-2.5-2.8v-0.6l12-141.8
				c0.1-0.6,0.4-1.2,0.9-1.7c0.6-0.5,1.2-0.8,2.1-0.9h0.4c0.3,0,0.6,0.1,1,0.4c0.4,0.2,0.7,0.6,0.9,1.1l58,123.1l57.3-122.6
				c0.3-0.7,0.7-1.2,1.2-1.4c0.4-0.3,0.8-0.4,1.2-0.4h0.1c0.8,0,1.5,0.2,2.1,0.7c0.6,0.4,0.9,1.1,0.9,1.9l12.1,142.1v0.6
				c0,1.4-0.8,2.3-2.5,2.5h-0.1c-1,0-1.7-0.2-2.1-0.6c-0.4-0.4-0.7-1.1-0.9-2.1l-11.3-131.4l-55.6,118.7c-0.5,0.9-1.2,1.3-2.3,1.3
				h-0.3c-1.1,0-1.9-0.4-2.4-1.3l-56-118.9L56.7,402.7z"/>
			<path id="XMLID_187_" class="st1" d="M276.4,402.1c0,2.3-0.9,3.5-2.8,3.5h-0.1c-1,0-1.7-0.3-2.1-1c-0.4-0.7-0.7-1.5-0.7-2.5
				v-63.8L222,262.2c-0.3-0.6-0.5-1.1-0.5-1.7c0-0.8,0.3-1.4,0.8-1.9c0.5-0.5,1.1-0.8,1.7-0.8h0.3h0.2c0.7,0,1.4,0.5,2.2,1.6
				l46.8,73.1l46.9-73c0.5-0.8,0.9-1.2,1.3-1.4c0.4-0.2,0.7-0.3,1.1-0.3h0.3c0.6,0,1.2,0.3,1.7,0.8c0.5,0.6,0.8,1.2,0.8,2
				c0,0.6-0.2,1.1-0.5,1.7l-48.6,76V402.1z"/>
		</g>
		<g id="XMLID_154_">
			<linearGradient id="XMLID_28_" gradientUnits="userSpaceOnUse" x1="51.0648" y1="328.2596" x2="879.89" y2="328.2596">
				<stop  offset="0" style="stop-color:#7FD2FF"/>
				<stop  offset="1.772076e-02" style="stop-color:#80CAFA"/>
				<stop  offset="0.217" style="stop-color:#8874C8"/>
				<stop  offset="0.3798" style="stop-color:#8F36A3"/>
				<stop  offset="0.4981" style="stop-color:#930F8D"/>
				<stop  offset="0.5598" style="stop-color:#940084"/>
				<stop  offset="1" style="stop-color:#FFD500"/>
			</linearGradient>
			<path id="XMLID_184_" class="st2" d="M448.1,341c0-2.9,1.4-4.3,4.3-4.3h10.1c1.2,0,2.2,0.4,3.1,1.1c0.9,0.8,1.4,1.8,1.4,3.2v43.9
				c0,0.8-0.2,1.5-0.5,2.2c-0.3,0.7-0.9,1.3-1.7,1.7l-0.8,0.6c-6.2,4.5-12.9,7.9-20.3,10.3c-7.4,2.4-15.4,3.6-24,3.6
				c-6.9,0-13.6-0.9-20-2.7c-6.4-1.8-12.4-4.3-17.9-7.6c-5.5-3.3-10.6-7.2-15.1-11.7c-4.6-4.6-8.5-9.6-11.7-15.1
				c-3.2-5.5-5.7-11.5-7.5-17.9c-1.8-6.4-2.7-13.1-2.7-20c0-6.9,0.9-13.5,2.7-19.9c1.8-6.4,4.3-12.3,7.6-17.9
				c3.3-5.6,7.2-10.6,11.7-15.2c4.6-4.6,9.6-8.5,15.1-11.8c5.5-3.3,11.5-5.8,17.9-7.6c6.4-1.8,13.1-2.7,20-2.7
				c8.1,0,15.8,1.2,23.3,3.7c7.5,2.5,14.4,6,20.9,10.6c0.7,0.5,1.3,1.1,1.8,1.8c0.5,0.7,0.7,1.4,0.7,2.1c0,0.9-0.3,1.7-0.8,2.4
				l-5.2,8.6c-1.1,1.6-2.3,2.4-3.4,2.4c-0.5,0-1-0.1-1.5-0.3c-0.6-0.2-1.2-0.6-1.9-1.1c-4.7-3.3-9.8-6-15.4-7.9
				c-5.5-1.9-11.5-2.9-17.7-2.9c-8.1,0-15.6,1.5-22.6,4.6c-6.9,3.1-12.9,7.2-18,12.4c-5.1,5.2-9.1,11.1-11.9,17.9
				c-2.9,6.8-4.3,13.8-4.3,21.1c0,7.8,1.5,15.1,4.4,21.9c2.9,6.8,6.9,12.7,12,17.7c5,5,10.9,9,17.6,11.8c6.7,2.9,13.9,4.3,21.5,4.3
				c4.8,0,9.5-0.8,14.3-2.3c4.8-1.5,9.6-3.4,14.5-5.5V341z"/>
			<linearGradient id="XMLID_29_" gradientUnits="userSpaceOnUse" x1="51.0648" y1="328.2596" x2="879.89" y2="328.2596">
				<stop  offset="0" style="stop-color:#7FD2FF"/>
				<stop  offset="1.772076e-02" style="stop-color:#80CAFA"/>
				<stop  offset="0.217" style="stop-color:#8874C8"/>
				<stop  offset="0.3798" style="stop-color:#8F36A3"/>
				<stop  offset="0.4981" style="stop-color:#930F8D"/>
				<stop  offset="0.5598" style="stop-color:#940084"/>
				<stop  offset="1" style="stop-color:#FFD500"/>
			</linearGradient>
			<path id="XMLID_182_" class="st3" d="M593.3,255.2c3,0,4.5,1.6,4.5,4.7v9.7c0,1.2-0.4,2.3-1.1,3.2c-0.8,0.9-2,1.4-3.6,1.4h-79.2
				v40.4h62.3c1.2,0,2.2,0.3,3,1s1.3,1.9,1.3,3.5v10c0,1.2-0.4,2.2-1.1,3.1c-0.7,0.9-1.8,1.4-3.2,1.4h-62.3v48.4h79.6
				c3,0,4.5,1.5,4.5,4.6v10.1c0,2.9-1.4,4.3-4.3,4.3h-94.6c-2.9,0-4.3-1.4-4.3-4.1V259.7c0-3,1.4-4.5,4.3-4.5H593.3z"/>
			<linearGradient id="XMLID_30_" gradientUnits="userSpaceOnUse" x1="51.0648" y1="328.2596" x2="879.89" y2="328.2596">
				<stop  offset="0" style="stop-color:#7FD2FF"/>
				<stop  offset="1.772076e-02" style="stop-color:#80CAFA"/>
				<stop  offset="0.217" style="stop-color:#8874C8"/>
				<stop  offset="0.3798" style="stop-color:#8F36A3"/>
				<stop  offset="0.4981" style="stop-color:#930F8D"/>
				<stop  offset="0.5598" style="stop-color:#940084"/>
				<stop  offset="1" style="stop-color:#FFD500"/>
			</linearGradient>
			<path id="XMLID_180_" class="st4" d="M729.3,401.1c-1.4,0-2.7-0.7-3.7-2.2l-85.8-115v112.8c0,2.9-1.5,4.3-4.5,4.3h-9.9
				c-2.9,0-4.3-1.4-4.3-4.3V259.7c0-1.3,0.4-2.4,1.2-3.2c0.8-0.9,1.8-1.3,3.1-1.3h13.2c1.7,0,3.1,0.7,4.1,2.2l83.7,111.2V258.8
				c0.4-2.4,1.8-3.6,4.3-3.6h9.9c1.2,0,2.3,0.4,3.3,1.2c1,0.8,1.5,1.8,1.5,3.1v137.3c0,2.9-1.6,4.3-4.8,4.3H729.3z"/>
			<linearGradient id="XMLID_31_" gradientUnits="userSpaceOnUse" x1="51.0648" y1="328.2596" x2="879.89" y2="328.2596">
				<stop  offset="0" style="stop-color:#7FD2FF"/>
				<stop  offset="1.772076e-02" style="stop-color:#80CAFA"/>
				<stop  offset="0.217" style="stop-color:#8874C8"/>
				<stop  offset="0.3798" style="stop-color:#8F36A3"/>
				<stop  offset="0.4981" style="stop-color:#930F8D"/>
				<stop  offset="0.5598" style="stop-color:#940084"/>
				<stop  offset="1" style="stop-color:#FFD500"/>
			</linearGradient>
			<path id="XMLID_178_" class="st5" d="M875.2,255.2c3,0,4.5,1.6,4.5,4.7v9.7c0,1.2-0.4,2.3-1.1,3.2c-0.8,0.9-2,1.4-3.6,1.4h-79.2
				v40.4h62.3c1.2,0,2.2,0.3,3,1c0.9,0.7,1.3,1.9,1.3,3.5v10c0,1.2-0.4,2.2-1.1,3.1c-0.7,0.9-1.8,1.4-3.2,1.4h-62.3v48.4h79.6
				c3,0,4.5,1.5,4.5,4.6v10.1c0,2.9-1.4,4.3-4.3,4.3H781c-2.9,0-4.3-1.4-4.3-4.1V259.7c0-3,1.4-4.5,4.3-4.5H875.2z"/>
			<g id="XMLID_161_">
				<g id="XMLID_170_">
					<linearGradient id="XMLID_32_" gradientUnits="userSpaceOnUse" x1="51.0648" y1="328.2596" x2="879.89" y2="328.2596">
						<stop  offset="0" style="stop-color:#7FD2FF"/>
						<stop  offset="1.772076e-02" style="stop-color:#80CAFA"/>
						<stop  offset="0.217" style="stop-color:#8874C8"/>
						<stop  offset="0.3798" style="stop-color:#8F36A3"/>
						<stop  offset="0.4981" style="stop-color:#930F8D"/>
						<stop  offset="0.5598" style="stop-color:#940084"/>
						<stop  offset="1" style="stop-color:#FFD500"/>
					</linearGradient>
					<circle id="XMLID_177_" class="st6" cx="507.6" cy="81.7" r="17.7"/>
					<linearGradient id="XMLID_33_" gradientUnits="userSpaceOnUse" x1="51.0648" y1="328.2596" x2="879.89" y2="328.2596">
						<stop  offset="0" style="stop-color:#7FD2FF"/>
						<stop  offset="1.772076e-02" style="stop-color:#80CAFA"/>
						<stop  offset="0.217" style="stop-color:#8874C8"/>
						<stop  offset="0.3798" style="stop-color:#8F36A3"/>
						<stop  offset="0.4981" style="stop-color:#930F8D"/>
						<stop  offset="0.5598" style="stop-color:#940084"/>
						<stop  offset="1" style="stop-color:#FFD500"/>
					</linearGradient>
					<circle id="XMLID_176_" class="st7" cx="496.1" cy="137.7" r="17.7"/>
					<linearGradient id="XMLID_34_" gradientUnits="userSpaceOnUse" x1="51.0648" y1="328.2596" x2="879.89" y2="328.2596">
						<stop  offset="0" style="stop-color:#7FD2FF"/>
						<stop  offset="1.772076e-02" style="stop-color:#80CAFA"/>
						<stop  offset="0.217" style="stop-color:#8874C8"/>
						<stop  offset="0.3798" style="stop-color:#8F36A3"/>
						<stop  offset="0.4981" style="stop-color:#930F8D"/>
						<stop  offset="0.5598" style="stop-color:#940084"/>
						<stop  offset="1" style="stop-color:#FFD500"/>
					</linearGradient>
					<circle id="XMLID_175_" class="st8" cx="463.8" cy="181.8" r="16.2"/>
					<linearGradient id="XMLID_35_" gradientUnits="userSpaceOnUse" x1="51.0648" y1="328.2596" x2="879.89" y2="328.2596">
						<stop  offset="0" style="stop-color:#7FD2FF"/>
						<stop  offset="1.772076e-02" style="stop-color:#80CAFA"/>
						<stop  offset="0.217" style="stop-color:#8874C8"/>
						<stop  offset="0.3798" style="stop-color:#8F36A3"/>
						<stop  offset="0.4981" style="stop-color:#930F8D"/>
						<stop  offset="0.5598" style="stop-color:#940084"/>
						<stop  offset="1" style="stop-color:#FFD500"/>
					</linearGradient>
					<circle id="XMLID_174_" class="st9" cx="419.6" cy="220.1" r="14.7"/>
					<linearGradient id="XMLID_36_" gradientUnits="userSpaceOnUse" x1="51.0648" y1="328.2596" x2="879.89" y2="328.2596">
						<stop  offset="0" style="stop-color:#7FD2FF"/>
						<stop  offset="1.772076e-02" style="stop-color:#80CAFA"/>
						<stop  offset="0.217" style="stop-color:#8874C8"/>
						<stop  offset="0.3798" style="stop-color:#8F36A3"/>
						<stop  offset="0.4981" style="stop-color:#930F8D"/>
						<stop  offset="0.5598" style="stop-color:#940084"/>
						<stop  offset="1" style="stop-color:#FFD500"/>
					</linearGradient>
					<circle id="XMLID_173_" class="st10" cx="460.2" cy="480.1" r="9.8"/>
					<linearGradient id="XMLID_37_" gradientUnits="userSpaceOnUse" x1="51.0648" y1="328.2596" x2="879.89" y2="328.2596">
						<stop  offset="0" style="stop-color:#7FD2FF"/>
						<stop  offset="1.772076e-02" style="stop-color:#80CAFA"/>
						<stop  offset="0.217" style="stop-color:#8874C8"/>
						<stop  offset="0.3798" style="stop-color:#8F36A3"/>
						<stop  offset="0.4981" style="stop-color:#930F8D"/>
						<stop  offset="0.5598" style="stop-color:#940084"/>
						<stop  offset="1" style="stop-color:#FFD500"/>
					</linearGradient>
					<circle id="XMLID_172_" class="st11" cx="494.9" cy="526.7" r="7.2"/>
					<linearGradient id="XMLID_38_" gradientUnits="userSpaceOnUse" x1="51.0648" y1="328.2596" x2="879.89" y2="328.2596">
						<stop  offset="0" style="stop-color:#7FD2FF"/>
						<stop  offset="1.772076e-02" style="stop-color:#80CAFA"/>
						<stop  offset="0.217" style="stop-color:#8874C8"/>
						<stop  offset="0.3798" style="stop-color:#8F36A3"/>
						<stop  offset="0.4981" style="stop-color:#930F8D"/>
						<stop  offset="0.5598" style="stop-color:#940084"/>
						<stop  offset="1" style="stop-color:#FFD500"/>
					</linearGradient>
					<circle id="XMLID_171_" class="st12" cx="506.8" cy="580.8" r="7.2"/>
				</g>
				<g id="XMLID_162_">
					<linearGradient id="XMLID_39_" gradientUnits="userSpaceOnUse" x1="51.0648" y1="328.2596" x2="879.89" y2="328.2596">
						<stop  offset="0" style="stop-color:#7FD2FF"/>
						<stop  offset="1.772076e-02" style="stop-color:#80CAFA"/>
						<stop  offset="0.217" style="stop-color:#8874C8"/>
						<stop  offset="0.3798" style="stop-color:#8F36A3"/>
						<stop  offset="0.4981" style="stop-color:#930F8D"/>
						<stop  offset="0.5598" style="stop-color:#940084"/>
						<stop  offset="1" style="stop-color:#FFD500"/>
					</linearGradient>
					<circle id="XMLID_169_" class="st13" cx="328.6" cy="574.8" r="17.7"/>
					<linearGradient id="XMLID_40_" gradientUnits="userSpaceOnUse" x1="51.0648" y1="328.2596" x2="879.89" y2="328.2596">
						<stop  offset="0" style="stop-color:#7FD2FF"/>
						<stop  offset="1.772076e-02" style="stop-color:#80CAFA"/>
						<stop  offset="0.217" style="stop-color:#8874C8"/>
						<stop  offset="0.3798" style="stop-color:#8F36A3"/>
						<stop  offset="0.4981" style="stop-color:#930F8D"/>
						<stop  offset="0.5598" style="stop-color:#940084"/>
						<stop  offset="1" style="stop-color:#FFD500"/>
					</linearGradient>
					<circle id="XMLID_168_" class="st14" cx="340.1" cy="518.9" r="17.7"/>
					<linearGradient id="XMLID_41_" gradientUnits="userSpaceOnUse" x1="51.0648" y1="328.2596" x2="879.89" y2="328.2596">
						<stop  offset="0" style="stop-color:#7FD2FF"/>
						<stop  offset="1.772076e-02" style="stop-color:#80CAFA"/>
						<stop  offset="0.217" style="stop-color:#8874C8"/>
						<stop  offset="0.3798" style="stop-color:#8F36A3"/>
						<stop  offset="0.4981" style="stop-color:#930F8D"/>
						<stop  offset="0.5598" style="stop-color:#940084"/>
						<stop  offset="1" style="stop-color:#FFD500"/>
					</linearGradient>
					<circle id="XMLID_167_" class="st15" cx="372.4" cy="474.7" r="16.2"/>
					<linearGradient id="XMLID_42_" gradientUnits="userSpaceOnUse" x1="51.0648" y1="328.2596" x2="879.89" y2="328.2596">
						<stop  offset="0" style="stop-color:#7FD2FF"/>
						<stop  offset="1.772076e-02" style="stop-color:#80CAFA"/>
						<stop  offset="0.217" style="stop-color:#8874C8"/>
						<stop  offset="0.3798" style="stop-color:#8F36A3"/>
						<stop  offset="0.4981" style="stop-color:#930F8D"/>
						<stop  offset="0.5598" style="stop-color:#940084"/>
						<stop  offset="1" style="stop-color:#FFD500"/>
					</linearGradient>
					<circle id="XMLID_166_" class="st16" cx="416.6" cy="436.5" r="14.7"/>
					<linearGradient id="XMLID_43_" gradientUnits="userSpaceOnUse" x1="51.0648" y1="328.2596" x2="879.89" y2="328.2596">
						<stop  offset="0" style="stop-color:#7FD2FF"/>
						<stop  offset="1.772076e-02" style="stop-color:#80CAFA"/>
						<stop  offset="0.217" style="stop-color:#8874C8"/>
						<stop  offset="0.3798" style="stop-color:#8F36A3"/>
						<stop  offset="0.4981" style="stop-color:#930F8D"/>
						<stop  offset="0.5598" style="stop-color:#940084"/>
						<stop  offset="1" style="stop-color:#FFD500"/>
					</linearGradient>
					<circle id="XMLID_165_" class="st17" cx="376" cy="176.4" r="9.8"/>
					<linearGradient id="XMLID_44_" gradientUnits="userSpaceOnUse" x1="51.0648" y1="328.2596" x2="879.89" y2="328.2596">
						<stop  offset="0" style="stop-color:#7FD2FF"/>
						<stop  offset="1.772076e-02" style="stop-color:#80CAFA"/>
						<stop  offset="0.217" style="stop-color:#8874C8"/>
						<stop  offset="0.3798" style="stop-color:#8F36A3"/>
						<stop  offset="0.4981" style="stop-color:#930F8D"/>
						<stop  offset="0.5598" style="stop-color:#940084"/>
						<stop  offset="1" style="stop-color:#FFD500"/>
					</linearGradient>
					<circle id="XMLID_164_" class="st18" cx="341.3" cy="129.8" r="7.2"/>
					<linearGradient id="XMLID_45_" gradientUnits="userSpaceOnUse" x1="51.0648" y1="328.2596" x2="879.89" y2="328.2596">
						<stop  offset="0" style="stop-color:#7FD2FF"/>
						<stop  offset="1.772076e-02" style="stop-color:#80CAFA"/>
						<stop  offset="0.217" style="stop-color:#8874C8"/>
						<stop  offset="0.3798" style="stop-color:#8F36A3"/>
						<stop  offset="0.4981" style="stop-color:#930F8D"/>
						<stop  offset="0.5598" style="stop-color:#940084"/>
						<stop  offset="1" style="stop-color:#FFD500"/>
					</linearGradient>
					<circle id="XMLID_163_" class="st19" cx="329.4" cy="75.7" r="7.2"/>
				</g>
			</g>
			<linearGradient id="XMLID_46_" gradientUnits="userSpaceOnUse" x1="51.0648" y1="328.2596" x2="879.89" y2="328.2596">
				<stop  offset="0" style="stop-color:#7FD2FF"/>
				<stop  offset="1.772076e-02" style="stop-color:#80CAFA"/>
				<stop  offset="0.217" style="stop-color:#8874C8"/>
				<stop  offset="0.3798" style="stop-color:#8F36A3"/>
				<stop  offset="0.4981" style="stop-color:#930F8D"/>
				<stop  offset="0.5598" style="stop-color:#940084"/>
				<stop  offset="1" style="stop-color:#FFD500"/>
			</linearGradient>
			<path id="XMLID_159_" class="st20" d="M56.7,402.7c-0.2,1.9-1.2,2.9-3,2.9h-0.1c-1.7-0.2-2.5-1.1-2.5-2.8v-0.6l12-141.8
				c0.1-0.6,0.4-1.2,0.9-1.7c0.6-0.5,1.2-0.8,2.1-0.9h0.4c0.3,0,0.6,0.1,1,0.4c0.4,0.2,0.7,0.6,0.9,1.1l58,123.1l57.3-122.6
				c0.3-0.7,0.7-1.2,1.2-1.4c0.4-0.3,0.8-0.4,1.2-0.4h0.1c0.8,0,1.5,0.2,2.1,0.7c0.6,0.4,0.9,1.1,0.9,1.9l12.1,142.1v0.6
				c0,1.4-0.8,2.3-2.5,2.5h-0.1c-1,0-1.7-0.2-2.1-0.6c-0.4-0.4-0.7-1.1-0.9-2.1l-11.3-131.4l-55.6,118.7c-0.5,0.9-1.2,1.3-2.3,1.3
				h-0.3c-1.1,0-1.9-0.4-2.4-1.3l-56-118.9L56.7,402.7z"/>
			<linearGradient id="XMLID_47_" gradientUnits="userSpaceOnUse" x1="51.0648" y1="328.2596" x2="879.89" y2="328.2596">
				<stop  offset="0" style="stop-color:#7FD2FF"/>
				<stop  offset="1.772076e-02" style="stop-color:#80CAFA"/>
				<stop  offset="0.217" style="stop-color:#8874C8"/>
				<stop  offset="0.3798" style="stop-color:#8F36A3"/>
				<stop  offset="0.4981" style="stop-color:#930F8D"/>
				<stop  offset="0.5598" style="stop-color:#940084"/>
				<stop  offset="1" style="stop-color:#FFD500"/>
			</linearGradient>
			<path id="XMLID_155_" class="st21" d="M276.4,402.1c0,2.3-0.9,3.5-2.8,3.5h-0.1c-1,0-1.7-0.3-2.1-1c-0.4-0.7-0.7-1.5-0.7-2.5
				v-63.8L222,262.2c-0.3-0.6-0.5-1.1-0.5-1.7c0-0.8,0.3-1.4,0.8-1.9c0.5-0.5,1.1-0.8,1.7-0.8h0.3h0.2c0.7,0,1.4,0.5,2.2,1.6
				l46.8,73.1l46.9-73c0.5-0.8,0.9-1.2,1.3-1.4c0.4-0.2,0.7-0.3,1.1-0.3h0.3c0.6,0,1.2,0.3,1.7,0.8c0.5,0.6,0.8,1.2,0.8,2
				c0,0.6-0.2,1.1-0.5,1.7l-48.6,76V402.1z"/>
		</g>
	</g>
</g>
</svg>
